<svg version="1.1" id="Layer_1" xmlns="http://www.w3.org/2000/svg" x="0" y="0" viewBox="0 0 96 96" xml:space="preserve">
  <style>
    .st3{fill-rule:evenodd;clip-rule:evenodd;fill:#44B2E8}
  </style>
  <path fill="#0C67B0" d="M-152.97-146.83h47.22v53.6h-47.22z"/>
  <path fill="#F9B236" d="M-138.93-114.29h47.22v53.6h-47.22z"/>
  <path fill="#44B2E8" d="M-104.47-91.31h47.22v53.6h-47.22z"/>
  <path class="st3" d="M54.3 30.8c-2.85 2.85-2.85 7.53 0 10.38s7.4 2.72 10.25-.13c2.85-2.85 2.98-7.4.13-10.25s-7.53-2.85-10.38 0zm8.17 8.17c-1.65 1.65-4.32 1.65-5.97 0s-1.65-4.32 0-5.97 4.32-1.65 5.97 0 1.65 4.33 0 5.97z"/>
  <path class="st3" d="M48 0C21.49 0 0 21.49 0 48s21.49 48 48 48 48-21.49 48-48S74.51 0 48 0zm-9.53 37.55c-3.5 4.02-6.49 8.3-8.17 11.81l-11.42-1.3c10.64-10.38 11.28-9.99 19.59-10.51zM14.59 69.47l9.08-9.08c1.69-1.69 4.15.78 2.47 2.47l-9.08 9.08c-1.56 1.55-4.02-.92-2.47-2.47zm1.28 7.55l9.24-9.24c1.69-1.69 4.15.78 2.47 2.47l-9.24 9.24c-1.57 1.55-4.03-.92-2.47-2.47zM35.1 71.8l-9.08 9.08c-1.56 1.56-4.02-.91-2.47-2.47l9.08-9.08c1.69-1.68 4.15.78 2.47 2.47zm2.72-3.24L26.79 57.53l2.72-2.72 11.03 11.03-2.72 2.72zm9.47 7.91l-1.17-11.29c3.37-1.82 7.66-4.8 11.81-8.17-.65 8.17-.26 8.82-10.64 19.46zM72.2 38.33c-3.89 7.79-20.63 22.97-29.97 26.34L30.68 53.12c3.24-9.21 18.68-25.95 26.47-29.84 20.5-10.13 25.18-5.71 15.05 15.05z"/>
</svg>
