<svg version="1.1" id="Layer_1" xmlns="http://www.w3.org/2000/svg" x="0" y="0" viewBox="0 0 96 96" xml:space="preserve">
  <style>
    .st3{fill-rule:evenodd;clip-rule:evenodd;fill:#F9B236}
  </style>
  <path fill="#0C67B0" d="M-152.97-146.83h47.22v53.6h-47.22z"/>
  <path fill="#F9B236" d="M-138.93-114.29h47.22v53.6h-47.22z"/>
  <path fill="#44B2E8" d="M-104.47-91.31h47.22v53.6h-47.22z"/>
  <path class="st3" d="M51.45 52.24c7.14-1.81 12.15-8.23 12.15-15.6l-.01.03c.01-7.38-4.99-13.82-12.15-15.64-8.63-2.19-17.4 3.02-19.59 11.65-2.19 8.63 3.02 17.4 11.65 19.59.44.11.82.39 1.04.79l2.92 5.28 2.96-5.31c.23-.39.6-.68 1.03-.79z"/>
  <path class="st3" d="M48 0C21.49 0 0 21.49 0 48s21.49 48 48 48 48-21.49 48-48S74.51 0 48 0zm-2.82 79.34a1.62 1.62 0 11-3.24 0v-7.58c0-1.51-.6-2.97-1.67-4.04L28.24 55.7c-.65-.65-1.71-.65-2.37 0-.65.65-.65 1.71 0 2.37l6.97 6.95c.64.64.64 1.67 0 2.3-.64.64-1.67.64-2.3 0l-7.04-6.96a4.935 4.935 0 01-1.3-4.55 1.71 1.71 0 010-.32V42.46c0-.93-.76-1.69-1.69-1.69s-1.69.76-1.69 1.69v18.2c0 1.84.74 3.6 2.05 4.89l9.64 9.67c.32.3.5.71.51 1.15v2.98a1.62 1.62 0 11-3.24 0v-2.27l-9.2-9.22c-1.93-1.9-3.01-4.5-3.01-7.21v-18.2c0-2.73 2.21-4.94 4.94-4.94s4.94 2.21 4.94 4.94v9.79c.34-.12.69-.19 1.05-.23 1.48-.17 2.96.35 4.02 1.41l12.07 12.02a8.9 8.9 0 012.6 6.34v7.56zm2.31-17.71c-1.19 0-2.29-.65-2.87-1.7l-2.6-4.7a19.353 19.353 0 01-13.91-18.59h.01c0-8.6 5.67-16.17 13.92-18.59 10.27-3.01 21.03 2.87 24.04 13.14 3.01 10.27-2.87 21.03-13.14 24.04l-2.6 4.7c-.55 1.05-1.66 1.7-2.85 1.7zm31.76-.98c0 2.7-1.08 5.29-3.01 7.19l-9.16 9.22v2.27a1.62 1.62 0 11-3.24 0v-2.98c0-.43.17-.84.47-1.15l9.6-9.69a6.834 6.834 0 002.02-4.89v-18.2c0-.93-.76-1.69-1.69-1.69s-1.69.76-1.69 1.69v13.06c.01.11.01.21 0 .32.37 1.64-.12 3.35-1.3 4.55l-6.97 6.95c-.61.52-1.5.53-2.11.01a1.63 1.63 0 01-.19-2.29l6.97-6.97c.65-.65.65-1.71 0-2.37s-1.71-.65-2.37 0L54.55 67.72a5.645 5.645 0 00-1.65 4.04v7.58a1.62 1.62 0 11-3.24 0v-7.58c-.01-2.37.92-4.66 2.6-6.34L64.3 53.4a4.897 4.897 0 013.99-1.42c.36.04.71.12 1.05.23v-9.78c0-1.18.42-2.31 1.18-3.21a4.932 4.932 0 016.96-.55c1.12.94 1.77 2.32 1.77 3.78v18.2z"/>
</svg>
